<svg xmlns:rdf="http://www.w3.org/1999/02/22-rdf-syntax-ns#" xmlns="http://www.w3.org/2000/svg" version="1.1" xmlns:cc="http://creativecommons.org/ns#" xmlns:xlink="http://www.w3.org/1999/xlink" viewBox="0 0 512 512" xmlns:dc="http://purl.org/dc/elements/1.1/">
 <defs>
  <linearGradient id="a">
   <stop stop-color="#705526" offset="0"/>
   <stop stop-color="#c69c59" offset="1"/>
  </linearGradient>
  <linearGradient id="e" y2="557.51" xlink:href="#a" gradientUnits="userSpaceOnUse" x2="74.143" y1="543.93" x1="807.86"/>
  <linearGradient id="d" y2="1022.4" xlink:href="#a" gradientUnits="userSpaceOnUse" x2="492" y1="1022.4" x1="-272.86"/>
  <linearGradient id="c" y2="571.08" xlink:href="#a" gradientUnits="userSpaceOnUse" x2="1023.4" y1="570.36" x1="20"/>
  <linearGradient id="b" y2="944.93" gradientUnits="userSpaceOnUse" x2="457.71" y1="795.65" x1="48.571">
   <stop stop-color="#848a82" offset="0"/>
   <stop stop-color="#404850" offset="1"/>
  </linearGradient>
 </defs>
 <g transform="translate(0 -540.36)">
  <rect height="492" width="492" y="550.36" x="10" fill="url(#b)"/>
  <path d="m34.286 573.79 275.71-1.43c5.076 60.423-91.478 91.626-149.29 135.71-91.803 70.03 65.52 85.93 79.29 137.15 30.76 114.43-122.98 67.76-204.29 169.28z" fill-opacity=".080402" fill-rule="evenodd" fill="#fff"/>
  <g fill-rule="evenodd">
   <path d="m0 1052.4 20-20h472l20 20z" fill="#705526"/>
   <path d="m20 1032.4 20-20h432l20 20z" fill="url(#d)"/>
   <path d="m0 540.36 20 20h472l20-20z" fill="url(#e)"/>
   <path d="m20 560.36 20 20h432l20-20z" fill="url(#c)"/>
   <path d="m0 540.36 20 20v472l-20 20z" fill="#cda76c"/>
   <path d="m20 560.36 20 20v432l-20 20z" fill="#705526"/>
   <path d="m512 540.36-20 20v472l20 20z" fill="#705526"/>
   <path d="m492 560.36-20 20v432l20 20z" fill="#c69c59"/>
  </g>
  <g fill-opacity=".20101" fill="#fff" transform="matrix(.91335 -.17751 .057570 1.1994 1.1561 -19.953)">
   <path d="m119.35 797.85-2.3756-89.352c-4.2475-37.412-48.972-22.212-50.304 8.3357l3.4977 81.188-39.105 0.30974c-10.478-48.77 3.104-107.28-5.273-156.6l36.58 4.5248c2.3908 9.193 3.9815 20.114 3.9815 20.114 25.13-31.929 93.778-22.504 94.003 36.047l-5.6768 95.378z"/>
   <path d="m251.36 570.98c8.7818-3.9286 15.974-0.13598 9.4146 9.1287-47.714 67.393-54.655 185.04 2.3484 261.05 5.5802 8.3939-1.3619 12.261-15.916 2.5601-73.725-49.14-113.35-210.27 4.1527-272.73z"/>
   <path d="m302.01 670.12c-0.54704-14.519-6.425-26.297-15.162-32.797-4.7636-3.5442-14.023 0.30293-21.733 2.2942-5.2846 1.1403-10.755-3.1849-10.685-9.1048l6.905-21.216c13.842-8.6235 44.342-3.7218 53.512 7.9298 45.86 58.271 59.216 135.19 62.949 190l-40.749-2.5144c-4.5276-34.024-5.5709-55.404-13.697-90.919-12.58 36.872-22.375 53.78-48.312 92.091l-33.371-3.0318c-1.9104-4.5812-3.4218-9.2881-4.4941-13.913 16.943-23.25 50.492-75.718 64.838-118.82z"/>
   <path d="m360.82 865.25c-15.384 0.67858-14.905-8.1328-6.3962-20.121 49.178-69.286 53.316-180.09-1.227-256.42-5.6532-7.9113-5.3494-16.051 6.7596-11.785 135.37 92.497 82.671 245.63 0.86351 288.32z"/>
  </g>
  <g fill-opacity=".70352" fill="#fff" transform="matrix(.86862 -.16882 .054750 1.1406 13.571 19.286)">
   <path d="m119.35 797.85v-91.948c-6.2505-49.499-66.087-22.64-67.419 7.908v84.04l-20.867 0.48234c-10.483-48.76 2.183-101.51-6.194-150.83l24.917 5.3253c0.44084 8.1362 1.0644 16.468 1.0723 24.796h0.4021c25.13-31.929 97.828-34.117 98.053 24.434l-5.7031 95.795z"/>
   <path d="m259.83 566.87c-59.98 68.47-68.45 206.35 2.18 285.73-80.35-38.21-127.6-219.05-2.18-285.73z"/>
   <path d="m315.74 669.48c-5.7848-18.272-12.187-34.147-25.157-41.72-5.2575-3.0699-14.593-3.057-26.328 3.8475l6.8802-22.638c13.979-4.5833 31.796-3.1965 40.966 8.4551 45.86 58.271 61.965 135 65.698 189.81l-25.603-0.86822c-4.5276-34.024-8.0874-77.514-25.772-110.28-12.58 36.872-31.164 69.155-57.101 107.47l-25.21-0.86c28.58-38.34 56.1-86.6 71.62-133.22z"/>
   <path d="m360.82 865.25c59.942-68.384 70.92-210.5 0.401-289.78 135.37 92.497 81.407 247.08-0.401 289.78z"/>
  </g>
 </g>
</svg>
