<?xml version="1.0" encoding="UTF-8" standalone="no"?>
<!-- Created with Inkscape (http://www.inkscape.org/) -->

<svg
   xmlns:dc="http://purl.org/dc/elements/1.1/"
   xmlns:cc="http://creativecommons.org/ns#"
   xmlns:rdf="http://www.w3.org/1999/02/22-rdf-syntax-ns#"
   xmlns:svg="http://www.w3.org/2000/svg"
   xmlns="http://www.w3.org/2000/svg"
   xmlns:xlink="http://www.w3.org/1999/xlink"
   xmlns:sodipodi="http://sodipodi.sourceforge.net/DTD/sodipodi-0.dtd"
   xmlns:inkscape="http://www.inkscape.org/namespaces/inkscape"
   width="512"
   height="512"
   id="svg2"
   version="1.1"
   inkscape:version="0.91 r13725"
   sodipodi:docname="formula.svg">
  <defs
     id="defs4">
    <linearGradient
       id="linearGradient4333">
      <stop
         style="stop-color:#705526;stop-opacity:1;"
         offset="0"
         id="stop4335" />
      <stop
         style="stop-color:#c69c59;stop-opacity:1;"
         offset="1"
         id="stop4337" />
    </linearGradient>
    <linearGradient
       id="linearGradient3755">
      <stop
         style="stop-color:#848a82;stop-opacity:1;"
         offset="0"
         id="stop3757" />
      <stop
         style="stop-color:#404850;stop-opacity:1;"
         offset="1"
         id="stop3759" />
    </linearGradient>
    <linearGradient
       inkscape:collect="always"
       xlink:href="#linearGradient4333"
       id="linearGradient4317"
       x1="807.85712"
       y1="543.93359"
       x2="74.14286"
       y2="557.50507"
       gradientUnits="userSpaceOnUse" />
    <linearGradient
       inkscape:collect="always"
       xlink:href="#linearGradient4333"
       id="linearGradient4325"
       x1="-272.85715"
       y1="1022.3622"
       x2="492"
       y2="1022.3622"
       gradientUnits="userSpaceOnUse" />
    <linearGradient
       inkscape:collect="always"
       xlink:href="#linearGradient4333"
       id="linearGradient4334"
       x1="20"
       y1="570.36218"
       x2="1023.4286"
       y2="571.07648"
       gradientUnits="userSpaceOnUse" />
    <linearGradient
       inkscape:collect="always"
       xlink:href="#linearGradient3755"
       id="linearGradient4345"
       x1="48.57143"
       y1="795.64789"
       x2="457.71429"
       y2="944.93359"
       gradientUnits="userSpaceOnUse" />
  </defs>
  <sodipodi:namedview
     id="base"
     pagecolor="#ffffff"
     bordercolor="#666666"
     borderopacity="1.0"
     inkscape:pageopacity="0.0"
     inkscape:pageshadow="2"
     inkscape:zoom="1.979899"
     inkscape:cx="219.40395"
     inkscape:cy="228.82346"
     inkscape:document-units="px"
     inkscape:current-layer="layer1"
     showgrid="false"
     inkscape:window-width="1855"
     inkscape:window-height="1056"
     inkscape:window-x="65"
     inkscape:window-y="24"
     inkscape:window-maximized="1" />
  <metadata
     id="metadata7">
    <rdf:RDF>
      <cc:Work
         rdf:about="">
        <dc:format>image/svg+xml</dc:format>
        <dc:type
           rdf:resource="http://purl.org/dc/dcmitype/StillImage" />
        <dc:title />
      </cc:Work>
    </rdf:RDF>
  </metadata>
  <g
     inkscape:label="Layer 1"
     inkscape:groupmode="layer"
     id="layer1"
     transform="translate(0,-540.36218)">
    <rect
       style="fill:url(#linearGradient4345);fill-opacity:1;stroke:none;stroke-width:20;stroke-miterlimit:4;stroke-opacity:1;stroke-dasharray:none"
       id="rect2985"
       width="492"
       height="492"
       x="10"
       y="550.36218" />
    <path
       style="fill:#ffffff;fill-rule:evenodd;stroke:none;stroke-width:1px;stroke-linecap:butt;stroke-linejoin:miter;stroke-opacity:1;fill-opacity:0.08040201"
       d="M 34.285714,573.79075 310,572.36218 c 5.07596,60.42333 -91.47819,91.62633 -149.28571,135.71429 C 68.906573,778.09531 226.23276,793.99665 240,845.21932 270.7569,959.65404 117.01788,912.97838 35.714286,1014.505 Z"
       id="path4347"
       inkscape:connector-curvature="0"
       sodipodi:nodetypes="ccsscc" />
    <path
       style="fill:#705526;fill-opacity:1;fill-rule:evenodd;stroke:none;stroke-width:1px;stroke-linecap:butt;stroke-linejoin:miter;stroke-opacity:1"
       d="m 0,1052.3622 20,-20 472,0 20,20 z"
       id="path4293"
       inkscape:connector-curvature="0"
       sodipodi:nodetypes="ccccc" />
    <path
       sodipodi:nodetypes="ccccc"
       inkscape:connector-curvature="0"
       id="path4297"
       d="m 20,1032.3622 20,-20 432,0 20,20 z"
       style="fill:url(#linearGradient4325);fill-opacity:1;fill-rule:evenodd;stroke:none;stroke-width:1px;stroke-linecap:butt;stroke-linejoin:miter;stroke-opacity:1" />
    <path
       sodipodi:nodetypes="ccccc"
       inkscape:connector-curvature="0"
       id="path4299"
       d="m 0,540.36218 20,20 472,0 20,-20 z"
       style="fill:url(#linearGradient4317);fill-opacity:1;fill-rule:evenodd;stroke:none;stroke-width:1px;stroke-linecap:butt;stroke-linejoin:miter;stroke-opacity:1" />
    <path
       style="fill:url(#linearGradient4334);fill-opacity:1;fill-rule:evenodd;stroke:none;stroke-width:1px;stroke-linecap:butt;stroke-linejoin:miter;stroke-opacity:1"
       d="m 20,560.36218 20,20 432,0 20,-20 z"
       id="path4301"
       inkscape:connector-curvature="0"
       sodipodi:nodetypes="ccccc" />
    <path
       sodipodi:nodetypes="ccccc"
       inkscape:connector-curvature="0"
       id="path4303"
       d="m 0,540.36218 20,20 0,472.00002 -20,20 z"
       style="fill:#cda76c;fill-opacity:1;fill-rule:evenodd;stroke:none;stroke-width:1px;stroke-linecap:butt;stroke-linejoin:miter;stroke-opacity:1" />
    <path
       style="fill:#705526;fill-opacity:1;fill-rule:evenodd;stroke:none;stroke-width:1px;stroke-linecap:butt;stroke-linejoin:miter;stroke-opacity:1"
       d="m 20,560.36218 20,20 0,432.00002 -20,20 z"
       id="path4305"
       inkscape:connector-curvature="0"
       sodipodi:nodetypes="ccccc" />
    <path
       style="fill:#705526;fill-opacity:1;fill-rule:evenodd;stroke:none;stroke-width:1px;stroke-linecap:butt;stroke-linejoin:miter;stroke-opacity:1"
       d="m 512,540.36218 -20,20 0,472.00002 20,20 z"
       id="path4307"
       inkscape:connector-curvature="0"
       sodipodi:nodetypes="ccccc" />
    <path
       sodipodi:nodetypes="ccccc"
       inkscape:connector-curvature="0"
       id="path4309"
       d="m 492,560.36218 -20,20 0,432.00002 20,20 z"
       style="fill:#c69c59;fill-opacity:1;fill-rule:evenodd;stroke:none;stroke-width:1px;stroke-linecap:butt;stroke-linejoin:miter;stroke-opacity:1" />
    <g
       id="g4349"
       style="font-style:normal;font-variant:normal;font-weight:normal;font-stretch:normal;font-size:274.50299072px;line-height:125%;font-family:Arial;-inkscape-font-specification:Arial;text-align:start;letter-spacing:0px;word-spacing:0px;writing-mode:lr-tb;text-anchor:start;fill:#ffffff;fill-opacity:0.20100503;stroke:none"
       transform="matrix(0.91335413,-0.17751427,0.05757039,1.1993648,1.1560585,-19.953308)">
      <path
         style="fill:#ffffff;fill-opacity:0.20100505"
         sodipodi:nodetypes="ccccccccccc"
         inkscape:connector-curvature="0"
         id="path4351"
         d="m 119.35077,797.84802 -2.37561,-89.35155 c -4.24748,-37.41155 -48.971586,-22.21219 -50.30368,8.3357 l 3.497665,81.18845 -39.105147,0.30974 C 20.581395,749.5743 34.163475,691.06145 25.785627,641.73716 l 36.580471,4.52479 c 2.390794,9.19305 3.981481,20.11404 3.981481,20.11404 25.129604,-31.92925 93.778341,-22.50357 94.003021,36.04726 l -5.67678,95.37766 z" />
      <path
         style="fill:#ffffff;fill-opacity:0.20100505"
         sodipodi:nodetypes="cscsc"
         inkscape:connector-curvature="0"
         id="path4353"
         d="m 251.36365,570.9753 c 8.78176,-3.92856 15.97397,-0.13598 9.41455,9.12866 -47.7144,67.39268 -54.65531,185.04174 2.34835,261.04547 5.58015,8.3939 -1.36186,12.26067 -15.91561,2.56007 -73.72458,-49.14012 -113.34857,-210.26804 4.15271,-272.7342 z" />
      <path
         style="fill:#ffffff;fill-opacity:0.20100505"
         sodipodi:nodetypes="cscccsccccccc"
         inkscape:connector-curvature="0"
         id="path4355"
         d="m 302.01083,670.1246 c -0.54704,-14.51894 -6.425,-26.29657 -15.16153,-32.79663 -4.76365,-3.5442 -14.02292,0.30293 -21.73314,2.29422 -5.28463,1.14032 -10.75545,-3.18487 -10.68475,-9.10481 l 6.90505,-21.21577 c 13.8425,-8.62349 44.34201,-3.72185 53.51194,7.92978 45.86017,58.27149 59.21568,135.19111 62.94866,189.9969 l -40.74938,-2.5144 c -4.52758,-34.02374 -5.57087,-55.40428 -13.69744,-90.91948 -12.58036,36.87243 -22.3747,53.7804 -48.31182,92.09055 l -33.37098,-3.0318 c -1.91039,-4.58125 -3.42183,-9.28807 -4.49414,-13.91339 16.94259,-23.25046 50.4922,-75.71832 64.83753,-118.81517 z" />
      <path
         style="fill:#ffffff;fill-opacity:0.20100505"
         sodipodi:nodetypes="csscc"
         inkscape:connector-curvature="0"
         id="path4357"
         d="m 360.81905,865.25473 c -15.38396,0.67858 -14.90533,-8.1328 -6.39615,-20.12121 49.17798,-69.28583 53.31635,-180.08847 -1.22701,-256.41825 -5.65324,-7.91132 -5.34943,-16.05085 6.75965,-11.78507 135.36604,92.49712 82.67117,245.63119 0.86351,288.32453 z" />
    </g>
    <g
       transform="matrix(0.86861543,-0.16881911,0.05475043,1.1406165,13.571429,19.285714)"
       style="font-style:normal;font-variant:normal;font-weight:normal;font-stretch:normal;font-size:274.50299072px;line-height:125%;font-family:Arial;-inkscape-font-specification:Arial;text-align:start;letter-spacing:0px;word-spacing:0px;writing-mode:lr-tb;text-anchor:start;fill:#ffffff;fill-opacity:0.70351762;stroke:none"
       id="text4963">
      <path
         d="m 119.35077,797.84802 0,-91.94778 c -6.25052,-49.49937 -66.087342,-22.63984 -67.419436,7.90805 l 0,84.03973 -20.867336,0.48234 C 20.581395,749.5743 33.247415,696.82154 24.869567,647.49725 l 24.917212,5.32527 c 0.44084,8.13619 1.064397,16.46751 1.072277,24.79641 l 0.402104,0 c 25.129604,-31.92925 97.82828,-34.11663 98.05296,24.4342 l -5.70308,95.79489 z"
         id="path4337"
         inkscape:connector-curvature="0"
         sodipodi:nodetypes="cccccccccccc"
         style="fill:#ffffff;fill-opacity:0.70351762" />
      <path
         d="M 259.83397,566.86899 C 199.84945,635.34221 191.37986,773.22376 262.0139,852.59804 181.66498,814.39239 134.4053,633.54951 259.83397,566.86899 Z"
         id="path4339"
         inkscape:connector-curvature="0"
         sodipodi:nodetypes="ccc"
         style="fill:#ffffff;fill-opacity:0.70351762" />
      <path
         d="m 315.73752,669.47626 c -5.78481,-18.27194 -12.18655,-34.14708 -25.15668,-41.7204 -5.25753,-3.0699 -14.59319,-3.05702 -26.32782,3.8475 l 6.88025,-22.63842 c 13.97886,-4.58332 31.79614,-3.19651 40.96607,8.45512 45.86017,58.27149 61.96474,135.00244 65.69772,189.80823 l -25.60323,-0.86822 c -4.52758,-34.02374 -8.08745,-77.51445 -25.7722,-110.27545 -12.58036,36.87243 -31.16425,69.15498 -57.10137,107.46513 L 244.1213,802.69523 C 272.70009,764.3598 300.21955,716.096 315.73752,669.47626 Z"
         id="path4341"
         inkscape:connector-curvature="0"
         sodipodi:nodetypes="csccscccccc"
         style="fill:#ffffff;fill-opacity:0.70351762" />
      <path
         d="m 360.81905,865.25473 c 59.94196,-68.38432 70.91982,-210.49978 0.401,-289.77515 135.36604,92.49712 81.40666,247.08181 -0.401,289.77515 z"
         id="path4343"
         inkscape:connector-curvature="0"
         sodipodi:nodetypes="ccc"
         style="fill:#ffffff;fill-opacity:0.70351762" />
    </g>
  </g>
</svg>
